<?xml version="1.0" encoding="UTF-8" standalone="no"?>
<!-- Created with Inkscape (http://www.inkscape.org/) -->

<svg
   version="1.1"
   id="svg1"
   width="635.97211"
   height="583.68994"
   viewBox="0 0 635.97213 583.68993"
   xmlns="http://www.w3.org/2000/svg"
   xmlns:svg="http://www.w3.org/2000/svg">
  <defs
     id="defs1">
    <clipPath
       clipPathUnits="userSpaceOnUse"
       id="clipPath5">
      <path
         d="M 0,1472 H 832 V 0 H 0 Z"
         transform="translate(-412.84541,-852.85912)"
         id="path5" />
    </clipPath>
    <clipPath
       clipPathUnits="userSpaceOnUse"
       id="clipPath7">
      <path
         d="M 0,1472 H 832 V 0 H 0 Z"
         transform="translate(-284.80461,-715.99664)"
         id="path7" />
    </clipPath>
    <clipPath
       clipPathUnits="userSpaceOnUse"
       id="clipPath9">
      <path
         d="M 0,1472 H 832 V 0 H 0 Z"
         transform="translate(-381.11881,-715.50044)"
         id="path9" />
    </clipPath>
    <clipPath
       clipPathUnits="userSpaceOnUse"
       id="clipPath11">
      <path
         d="M 0,1472 H 832 V 0 H 0 Z"
         transform="translate(-225.17151,-714.62609)"
         id="path11" />
    </clipPath>
    <clipPath
       clipPathUnits="userSpaceOnUse"
       id="clipPath13">
      <path
         d="M 0,1472 H 832 V 0 H 0 Z"
         transform="translate(-490.10631,-714.80729)"
         id="path13" />
    </clipPath>
    <clipPath
       clipPathUnits="userSpaceOnUse"
       id="clipPath15">
      <path
         d="M 0,1472 H 832 V 0 H 0 Z"
         transform="translate(-587.44441,-714.09052)"
         id="path15" />
    </clipPath>
    <clipPath
       clipPathUnits="userSpaceOnUse"
       id="clipPath17">
      <path
         d="M 0,1472 H 832 V 0 H 0 Z"
         transform="translate(-288.99591,-517.11629)"
         id="path17" />
    </clipPath>
    <clipPath
       clipPathUnits="userSpaceOnUse"
       id="clipPath19">
      <path
         d="M 0,1472 H 832 V 0 H 0 Z"
         transform="translate(-594.76961,-596.06069)"
         id="path19" />
    </clipPath>
    <clipPath
       clipPathUnits="userSpaceOnUse"
       id="clipPath21">
      <path
         d="M 0,1472 H 832 V 0 H 0 Z"
         transform="translate(-463.52301,-595.75349)"
         id="path21" />
    </clipPath>
    <clipPath
       clipPathUnits="userSpaceOnUse"
       id="clipPath23">
      <path
         d="M 0,1472 H 832 V 0 H 0 Z"
         transform="translate(-539.42911,-595.80081)"
         id="path23" />
    </clipPath>
    <clipPath
       clipPathUnits="userSpaceOnUse"
       id="clipPath25">
      <path
         d="M 0,1472 H 832 V 0 H 0 Z"
         transform="translate(-418.94741,-541.27949)"
         id="path25" />
    </clipPath>
    <clipPath
       clipPathUnits="userSpaceOnUse"
       id="clipPath27">
      <path
         d="M 0,1472 H 832 V 0 H 0 Z"
         transform="translate(-236.41911,-590.54721)"
         id="path27" />
    </clipPath>
  </defs>
  <g
     id="layer-MC0"
     transform="translate(-236.68065,-689.48842)">
    <path
       id="path1"
       d="M 0,0 H 832 V 1472 H 0 Z"
       style="fill:#31416f;fill-opacity:1;fill-rule:nonzero;stroke:none"
       transform="matrix(1.3333333,0,0,-1.3333333,0,1962.6667)" />
    <path
       id="path2"
       d="m 0,0 -13.721,27.04 -92.659,-180.301 27.827,-0.788 z"
       style="fill:#cbced7;fill-opacity:1;fill-rule:nonzero;stroke:none"
       transform="matrix(1.3333333,0,0,-1.3333333,571.5592,725.54173)" />
    <path
       id="path3"
       d="m 0,0 -12.201,-26.158 55.01,-109.058 27.213,-1.103 z"
       style="fill:#cbced7;fill-opacity:1;fill-rule:nonzero;stroke:none"
       transform="matrix(1.3333333,0,0,-1.3333333,585.33773,751.4608)" />
    <path
       id="path4"
       d="m 0,0 -35.562,-70.456 c 0,0 17.407,0.15 26.094,-0.504 2.664,6.184 7.544,11.141 10.393,13.091 3.893,2.666 8.499,4.265 13.253,4.269 9.268,-0.217 17.518,-6.634 27.277,-20.125 C 38.99,-68.172 0,0 0,0"
       style="fill:#cbced7;fill-opacity:1;fill-rule:nonzero;stroke:none"
       transform="matrix(1.3333333,0,0,-1.3333333,550.46053,825.5212)"
       clip-path="url(#clipPath5)" />
    <path
       id="path6"
       d="m 0,0 73.236,-0.796 c 0,0 -43.195,-70.951 -52.19,-85.137 -0.543,-0.929 -0.953,-1.922 -1.355,-2.93 17.14,0.008 34.271,0.039 51.403,-0.315 0.086,-4.049 0.173,-8.097 0.047,-12.153 -12.516,1.063 -25.079,0.598 -37.618,0.748 -11.847,0.055 -23.693,0.023 -35.532,0.126 1.426,3.355 3.576,6.309 5.364,9.452 15.47,25.417 48.213,78.639 48.213,78.639 l -50.599,1.118 z"
       style="fill:#cbced7;fill-opacity:1;fill-rule:nonzero;stroke:none"
       transform="matrix(1.3333333,0,0,-1.3333333,379.73947,1008.0045)"
       clip-path="url(#clipPath7)" />
    <path
       id="path8"
       d="m 0,0 12.248,-0.252 c 0,0 -0.15,-42.573 -0.055,-63.855 -0.331,-11.807 8.507,-23.33 20.376,-25.047 8.074,-1.513 16.982,-0.473 23.756,4.45 5.718,4.237 9.822,11.082 9.743,18.321 0.126,18.368 0.111,55.112 0.111,55.112 l -0.252,10.822 12.255,-0.055 0.095,-24.945 c 0,0 0.087,-26.812 -0.173,-40.21 -0.126,-11.499 -5.971,-22.708 -15.257,-29.474 -8.467,-6.12 -19.463,-6.994 -29.569,-6.214 -6.884,0.921 -14.154,2.725 -19.305,7.687 -4.379,4.12 -8.578,8.759 -10.673,14.485 -1.733,4.561 -2.772,9.405 -2.867,14.288 -0.268,9.728 -0.063,29.191 -0.063,29.191 z"
       style="fill:#cbced7;fill-opacity:1;fill-rule:nonzero;stroke:none"
       transform="matrix(1.3333333,0,0,-1.3333333,508.1584,1008.6661)"
       clip-path="url(#clipPath9)" />
    <path
       id="path10"
       d="m 0,0 48.897,-99.937 -13.405,1.197 -13.866,27.908 -4.077,-0.009 -25.229,0.078 5.868,10.492 18.172,0.362 -15.344,33.302 -22.771,-46.991 -12.303,-25.591 -13.603,0.181 z"
       style="fill:#cbced7;fill-opacity:1;fill-rule:nonzero;stroke:none"
       transform="matrix(1.3333333,0,0,-1.3333333,300.22867,1009.8319)"
       clip-path="url(#clipPath11)" />
    <path
       id="path12"
       d="m 0,0 c 10.988,0.284 21.991,0.055 32.987,0.024 10.176,0.039 20.668,-3.718 27.489,-11.484 11.799,-13.579 12.201,-35.571 1.016,-49.638 -4.624,-5.876 -11.767,-9.428 -19.093,-10.492 2.323,-3.339 18.143,-22.43 23.929,-29.434 -5.986,0.425 -17.974,0.401 -17.974,0.401 0,0 -21.991,28.576 -30.466,38.958 10.462,-0.373 20.36,-1.552 28.891,4.214 11.019,7.144 13.563,23.314 6.75,34.184 -3.891,7.049 -11.965,10.767 -19.754,11.208 -7.184,0.378 -14.391,0.228 -21.574,0.055 0.118,-20.526 0.102,-61.586 0.102,-61.586 l 0.339,-26.518 -12.311,0.155 -0.134,38.177 c 0,0 0.276,41.187 -0.197,61.776"
       style="fill:#cbced7;fill-opacity:1;fill-rule:nonzero;stroke:none"
       transform="matrix(1.3333333,0,0,-1.3333333,653.47507,1009.5903)"
       clip-path="url(#clipPath13)" />
    <path
       id="path14"
       d="m 0,0 65.478,-0.488 -0.04,-12.225 -52.607,0.118 0.055,-30.954 44.888,-0.323 0.284,-12.398 -45.077,0.299 -0.237,-31.065 53.379,-0.338 0.095,-12.185 -66.273,0.299 z"
       style="fill:#cbced7;fill-opacity:1;fill-rule:nonzero;stroke:none"
       transform="matrix(1.3333333,0,0,-1.3333333,783.2592,1010.546)"
       clip-path="url(#clipPath15)" />
    <path
       id="path16"
       d="M 0,0 8.345,17 30.508,62.611 47.423,27.982 31.514,27.479 26.275,18.901 51.794,19.329 62.179,0 h 7.465 L 29.877,79.59 7.203,30.21 -7.878,0 Z"
       style="fill:#cbced7;fill-opacity:1;fill-rule:nonzero;stroke:none"
       transform="matrix(1.3333333,0,0,-1.3333333,385.32787,1273.1783)"
       clip-path="url(#clipPath17)" />
    <path
       id="path18"
       d="m 0,0 c 19.904,-0.394 39.816,-0.118 59.72,-0.473 -0.103,-1.811 -0.118,-3.646 -0.063,-5.474 -8.94,0.047 -17.88,0.197 -26.82,-0.008 0.126,-23.747 -0.031,-47.503 -0.212,-71.251 -2.111,-0.047 -4.214,0 -6.294,0.331 0.04,23.535 0.095,47.078 0.292,70.613 C 17.801,-5.758 8.964,-6.112 0.142,-5.781 -0.071,-3.859 -0.126,-1.922 0,0"
       style="fill:#cbced7;fill-opacity:1;fill-rule:nonzero;stroke:none"
       transform="matrix(1.3333333,0,0,-1.3333333,793.02613,1167.9191)"
       clip-path="url(#clipPath19)" />
    <path
       id="path20"
       d="m 0,0 c 9.357,0.087 18.715,-0.181 28.072,-0.15 6.498,0.197 13.106,-1.575 18.47,-5.285 5.939,-4.529 9.696,-11.759 10.13,-19.203 0.551,-6.86 -0.386,-14.327 -4.711,-19.927 -4.355,-5.687 -11.318,-9.161 -18.446,-9.515 -6.617,-0.363 -13.257,-0.213 -19.873,0.063 -0.11,1.733 -1.378,3.907 -0.283,5.379 7.222,0.426 14.5,-0.236 21.707,0.568 6.845,0.921 12.871,6.049 14.84,12.673 3.3,10.168 -0.969,23.574 -11.532,27.497 -4.245,1.788 -8.9,1.969 -13.437,1.882 C 18.856,-6.12 12.768,-5.892 6.687,-6.175 6.742,-29.86 6.616,-53.537 6.498,-77.221 4.6,-77.182 2.702,-77.135 0.803,-77.119 0.851,-60.673 0.685,-44.235 0.662,-27.788 0.567,-18.526 0.843,-9.231 0,0"
       style="fill:#cbced7;fill-opacity:1;fill-rule:nonzero;stroke:none"
       transform="matrix(1.3333333,0,0,-1.3333333,618.03067,1168.3287)"
       clip-path="url(#clipPath21)" />
    <path
       id="path22"
       d="m 0,0 46.905,-0.165 -0.166,-5.53 -40.524,-0.094 0.134,-29.151 34.538,-0.3 0.173,-5.285 -34.688,-0.047 0.024,-29.915 40.958,-0.047 0.023,-6.049 -47.023,0.118 -0.299,31.301 z"
       style="fill:#cbced7;fill-opacity:1;fill-rule:nonzero;stroke:none"
       transform="matrix(1.3333333,0,0,-1.3333333,719.2388,1168.2656)"
       clip-path="url(#clipPath23)" />
    <path
       id="path24"
       d="m 0,0 c 4.143,2.261 8.491,4.49 11.515,8.223 4.167,4.852 5.727,11.39 5.868,17.651 0.134,7.452 -2.142,15.336 -7.663,20.582 -5.372,5.34 -13.099,7.75 -20.558,7.821 -7.113,0.158 -28.025,0.091 -28.025,0.091 V 54.36 41.777 c 0,-4.237 -0.055,-8.491 0,-12.728 v -52.293 h 0.796 c 0,-0.008 0.008,-0.008 0.008,-0.015 v 0.015 h 5.875 c 0.048,18.778 0.15,37.556 0,56.333 V 48.26 c 7.641,0.133 15.281,0.204 22.921,0.094 C -3.789,48.346 1.575,46.093 5.238,41.99 13.863,33.924 13.492,18.746 5.104,10.688 -0.89,5.135 -9.641,6.561 -17.108,6.53 c 1.631,-2.127 3.316,-4.214 5.049,-6.262 5.931,-7.002 10.72,-14.91 16.998,-21.629 0.764,-0.662 1.496,-1.638 2.591,-1.725 3.34,-0.221 6.695,-0.008 10.042,-0.244 C 12.051,-15.304 5.301,-8.192 0,0"
       style="fill:#cbced7;fill-opacity:1;fill-rule:nonzero;stroke:none"
       transform="matrix(1.3333333,0,0,-1.3333333,558.59653,1240.9607)"
       clip-path="url(#clipPath25)" />
    <path
       id="path26"
       d="m 0,0 c 6.301,0.441 12.981,0.291 18.557,-3.04 4.12,-1.717 6.75,-5.671 10.704,-7.57 1.82,-0.842 2.434,1.198 2.899,2.489 1.032,1.843 -0.693,3.576 -1.953,4.742 C 22.117,3.497 11.279,6.845 0.709,6.222 -7.232,6.119 -14.947,3.238 -21.376,-1.356 v 0 c 0,0 -10.13,-5.915 -14.24,-21.09 -0.497,-1.423 -0.789,-2.882 -0.953,-4.361 -0.379,-2.213 -0.636,-4.581 -0.721,-7.13 -0.787,-23.761 20.176,-34.498 20.176,-34.498 l 0.002,0.004 c 5.882,-3.376 12.656,-5.197 19.459,-4.962 10.555,-0.489 21.086,3.828 28.474,11.318 0.504,0.725 1.457,1.378 1.339,2.347 -0.859,1.71 -2.363,2.946 -3.781,4.167 -5.592,-6.475 -13.484,-11.145 -22.07,-12.035 -8.444,-0.497 -17.234,1.669 -24.039,6.805 -6.632,5.222 -11.405,12.91 -12.658,21.298 -1.41,7.916 0.607,16.1 4.466,23.039 C -20.684,-7.16 -10.578,-0.906 0,0"
       style="fill:#cbced7;fill-opacity:1;fill-rule:nonzero;stroke:none"
       transform="matrix(1.3333333,0,0,-1.3333333,315.22547,1175.2704)"
       clip-path="url(#clipPath27)" />
  </g>
</svg>
